HIERARCHY
ROOT pelvis
{
	OFFSET 0.000000 0.000000 0.000000
	CHANNELS 6 Xposition Yposition Zposition Zrotation Xrotation Yrotation
	JOINT lfemur
	{
		OFFSET 11.446000 0.000000 0.000000
		CHANNELS 3 Zrotation Xrotation Yrotation
		JOINT ltibia
		{
			OFFSET 0.000000 -42.030400 0.000000
			CHANNELS 3 Zrotation Xrotation Yrotation
			JOINT lfoot
			{
				OFFSET 0.000000 -39.930200 0.000000
				CHANNELS 3 Zrotation Xrotation Yrotation
				JOINT ltoes
				{
					OFFSET 0.000000 0.000000 11.775800
					CHANNELS 3 Zrotation Xrotation Yrotation
					End Site
					{
					    OFFSET 0.000000 0.000000 5.000000
					}
				}
			}
		}
	}
	JOINT rfemur
	{
		OFFSET -11.446000 0.000000 0.000000
		CHANNELS 3 Zrotation Xrotation Yrotation
		JOINT rtibia
		{
			OFFSET 0.000000 -42.030400 0.000000
			CHANNELS 3 Zrotation Xrotation Yrotation
			JOINT rfoot
			{
				OFFSET 0.000000 -39.930200 0.000000
				CHANNELS 3 Zrotation Xrotation Yrotation
				JOINT rtoes
				{
					OFFSET 0.000000 0.000000 11.775800
					CHANNELS 3 Zrotation Xrotation Yrotation
					End Site
					{
					    OFFSET 0.000000 0.000000 5.000000
					}
				}
			}
		}
	}
	JOINT thorax
	{
		OFFSET 0.000000 11.255600 -5.000000
		CHANNELS 3 Zrotation Xrotation Yrotation
		JOINT head
		{
			OFFSET 0.000000 43.799300 0.000000
			CHANNELS 3 Zrotation Xrotation Yrotation
			End Site
			{
			    OFFSET 0.000000 5.000000 0.000000
			}
		}
		JOINT lclavicle
		{
			OFFSET 0.000000 39.863000 0.000000
			CHANNELS 3 Zrotation Xrotation Yrotation
			JOINT lhumerus
			{
				OFFSET 17.380600 4.958300 0.000000
				CHANNELS 3 Zrotation Xrotation Yrotation
				JOINT lradius
				{
					OFFSET 0.000000 -27.561300 0.000000
					CHANNELS 3 Zrotation Xrotation Yrotation
					JOINT lhand
					{
						OFFSET 0.000000 -26.933000 0.000000
						CHANNELS 3 Zrotation Xrotation Yrotation
						End Site
						{
						    OFFSET 0.000000 -5.000000 0.000000
						}
					}
				}
			}
		}
		JOINT rclavicle
		{
			OFFSET 0.000000 39.863000 0.000000
			CHANNELS 3 Zrotation Xrotation Yrotation
			JOINT rhumerus
			{
				OFFSET -17.380600 4.958300 0.000000
				CHANNELS 3 Zrotation Xrotation Yrotation
				JOINT rradius
				{
					OFFSET 0.000000 -27.561300 0.000000
					CHANNELS 3 Zrotation Xrotation Yrotation
					JOINT rhand
					{
						OFFSET 0.000000 -26.933000 0.000000
						CHANNELS 3 Zrotation Xrotation Yrotation
						End Site
						{
						    OFFSET 0.000000 -5.000000 0.000000
						}
					}
				}
			}
		}
	}
}
MOTION
Frames:	16
Frame Time:	0.0333333
64.8465 85.3134 -162.146 5.86288 1.43608 -0.753136 -10.1503 12.2063 -1.18308 0.0523475 14.3471 -0.133812 2.96615 -5.12826 -6.73408 1.86854e-015 -5 3.1927e-015 -2.43077 -27.9255 2.9072 -0.0312897 15.1818 0.154925 -1.51546 6.97599 -4.90778 -1.54045e-016 -5 -1.19726e-015 -4.95446 6.3246 -5.81695 3.6872 -2.02283 -7.28436 -1.98785e-016 1.59028e-015 1.59028e-015 15.7146 -13.9914 -25.9137 17.4481 -25.504 7.78018 -0.074355 -1.08261 -7.72966 -1.98785e-016 1.59028e-015 1.59028e-015 -4.96423 2.71237 4.7197 -14.9744 -22.539 -6.32021 0.119825 -1.37664 9.84808 
64.4366 85.3174 -159.011 5.60807 1.43814 -0.847367 -9.65305 13.9341 -1.93193 0.0566415 14.9587 -0.107879 3.8977 -4.1176 -6.71923 -6.56007e-016 -5 1.59635e-015 -1.14965 -27.2937 3.63268 -0.0465417 18.3796 0.159947 -2.14057 8.23093 -3.56999 -1.64619e-016 -5 -0 -4.7345 6.30411 -5.57445 3.54959 -2.02639 -7.56275 -1.98785e-016 -1.59028e-015 7.95139e-016 15.3578 -13.6704 -25.6619 17.7774 -25.8821 7.98131 -0.0867744 -1.17045 -8.36145 -1.98785e-016 -1.59028e-015 7.95139e-016 -4.79853 3.00181 3.50299 -14.3348 -21.7348 -5.95788 0.153873 -1.55989 11.1744 
63.9474 85.8676 -155.553 4.59698 1.56792 -0.598724 -8.34548 14.6985 -4.03467 0.0698073 17.3633 -0.135193 6.1425 -1.68628 -7.5174 -0 -5 -0 0.0377639 -24.8637 3.84933 -0.0433533 16.1617 0.0860261 -0.673034 14.9655 -2.15149 -1.50328e-016 -5 -2.99316e-016 -3.32083 5.90839 -5.44747 2.93182 -2.26227 -7.99379 -9.93923e-017 -3.18055e-015 -0 14.1964 -13.0442 -25.1292 17.5897 -25.6673 7.86642 -0.0890101 -1.1853 -8.46851 -9.93923e-017 -3.18055e-015 -0 -4.97195 3.21732 2.52317 -14.1338 -21.479 -5.84551 0.168102 -1.63086 11.6896 
63.3167 86.4827 -152.006 3.36001 1.63741 -0.878659 -6.95884 12.9759 -4.38755 0.108033 23.8285 -0.320503 8.86598 0.701757 -8.15633 -1.45115e-015 -5 1.59635e-015 1.94352 -22.4004 3.97983 -0.0428622 15.51 0.0852716 -1.03751 15.6781 -0.558678 -5.16831e-016 -5 -7.98176e-016 -1.75747 5.40014 -5.32012 2.49753 -1.72286 -7.44217 1.98785e-016 3.18055e-015 -7.95139e-016 13.2168 -11.9689 -24.0393 17.1278 -25.133 7.5861 -0.0852714 -1.15972 -8.28475 1.98785e-016 3.18055e-015 -7.95139e-016 -5.22371 3.57351 0.854654 -13.4619 -20.6126 -5.47432 0.202139 -1.78752 12.8301 
62.7478 87.1543 -148.524 2.76152 1.23224 -1.17727 -6.00205 9.5644 -3.82911 0.203749 33.5665 -1.08298 13.2208 5.5345 -10.4169 -3.04142e-015 -5 1.59635e-015 2.95985 -19.56 3.94844 -0.0437199 15.6462 0.104708 -1.03736 13.9616 -0.603471 2.48481e-016 -5 -0 -1.18966 5.51167 -4.5854 2.40247 -1.20601 -8.33318 4.96962e-016 7.95139e-016 -2.38542e-015 12.37 -10.9191 -22.4139 16.5982 -24.5106 7.26814 -0.106075 -1.29446 -9.25507 4.96962e-016 7.95139e-016 -2.38542e-015 -5.18228 3.4678 -0.0323954 -13.2151 -20.2903 -5.33997 0.213406 -1.83611 13.1859 
62.1294 87.8003 -144.988 1.4837 1.03992 -0.694214 -3.8075 3.14226 -2.47098 0.406627 45.8589 -1.48942 12.8575 13.1887 -13.9099 6.08285e-015 -5 -3.1927e-015 4.30152 -15.2997 2.81807 -0.0298877 12.5068 0.0827326 -1.29323 13.9026 0.496726 6.95746e-016 -5 -0 0.439897 5.3045 -4.92923 1.76546 -1.03831 -8.8475 -7.95139e-016 -1.59028e-015 -7.95139e-016 11.6729 -9.37911 -22.339 16.6124 -24.5276 7.27672 -0.0991854 -1.25145 -8.94527 -7.95139e-016 -1.59028e-015 -7.95139e-016 -5.68995 3.65101 1.60515 -13.523 -20.692 -5.50782 0.18763 -1.72226 12.3552 
61.2848 88.2992 -141.609 -0.590571 0.341697 0.246704 -0.269732 -2.67369 -1.82925 0.73301 55.9873 -0.153745 9.66556 26.8638 -15.234 5.21742e-017 -5 5.98632e-016 6.63408 -8.68821 1.99451 -0.00806027 5.35491 0.0267402 -1.3084 15.3983 0.571476 6.95656e-017 -5 7.98176e-016 2.82045 6.35363 -4.68909 2.23789 -0.98381 -8.89306 3.97569e-016 0 -0 11.291 -9.76033 -23.9892 16.1496 -23.9751 7.00217 -0.0765051 -1.09806 -7.84086 3.97569e-016 0 -0 -6.31897 2.54034 3.53876 -14.1797 -21.5374 -5.87106 0.153658 -1.55876 11.1668 
60.5731 88.5448 -138.335 -1.94184 -0.157001 0.0569 2.00431 -7.46442 0.361194 1.21505 64.3536 -0.64959 7.29628 27.1325 -10.8357 -7.86443e-016 -5 9.9772e-017 8.33675 -3.38105 1.89065 -4.28688e-007 0.0685343 -0.0512607 -1.46553 16.0048 1.04406 8.64704e-016 -5 7.98176e-016 4.08384 6.41852 -3.74146 2.10774 -0.357295 -9.27079 9.93923e-017 0 7.95139e-016 11.1785 -8.78824 -24.9255 16.4112 -24.2881 7.15698 -0.0960033 -1.23159 -8.80152 9.93923e-017 0 7.95139e-016 -6.92345 2.49088 6.9041 -15.2548 -22.8859 -6.48096 0.114687 -1.34656 9.62995 
59.9653 88.6026 -135.21 -2.9773 -0.551486 -0.395319 3.86484 -12.0655 2.42567 1.74667 69.6115 -1.41336 3.16082 16.5984 -4.74616 1.73914e-017 -5 1.99544e-016 9.77736 -0.901505 1.97801 0.00160578 5.33404e-006 -0.0311412 -1.37309 13.8688 0.65788 3.97569e-016 -5 -0 5.17017 7.03945 -2.59959 1.77535 -0.857748 -9.74813 -7.95139e-016 -7.95139e-016 7.95139e-016 10.912 -8.38793 -24.8988 16.4142 -24.2918 7.15869 -0.100766 -1.26216 -9.02189 -7.95139e-016 -7.95139e-016 7.95139e-016 -7.65173 0.857379 8.14498 -15.6261 -23.3422 -6.69589 0.102952 -1.27601 9.12077 
59.5667 88.3292 -132.195 -3.23446 -0.903279 -1.26566 4.59665 -16.328 3.58952 2.01269 71.4985 -1.76736 1.77777 10.4497 -1.59682 -8.85227e-017 -5 1.24715e-016 10.3271 1.51152 2.45965 0.00282392 -0.021383 -0.0142535 -1.40162 12.0866 0.777566 9.93923e-017 -5 -0 5.29561 7.46046 -1.35063 1.53648 -1.03621 -9.22694 -3.97569e-016 -1.59028e-015 3.97569e-016 10.7686 -7.67313 -24.3568 16.3921 -24.2654 7.14561 -0.0720709 -1.06508 -7.60464 -3.97569e-016 -1.59028e-015 3.97569e-016 -8.07936 -0.51123 9.44247 -16.0938 -23.9092 -6.9695 0.0884808 -1.18119 8.43903 
59.2544 88.0966 -129.177 -3.40711 -1.02806 -2.16735 5.03798 -20.4279 3.89913 1.88672 70.6304 -1.70621 1.54082 5.92512 -1.00531 -2.03133e-016 -5 -4.9886e-017 10.7978 1.16499 2.98847 -0.00368962 4.98655 0.0836625 -1.24865 8.05862 -0.0853836 4.64657e-016 -5 1.99544e-016 5.38965 7.80653 0.0134785 1.00704 -0.803555 -9.04577 2.48481e-016 -1.59028e-015 -0 10.4061 -7.05092 -23.2299 16.209 -24.0465 7.03722 -0.0681909 -1.03561 -7.39305 2.48481e-016 -1.59028e-015 -0 -8.67125 -2.51441 10.3024 -16.1482 -23.9745 -7.00144 0.074727 -1.0853 7.74892 
59.0474 87.478 -126.279 -3.71408 -1.01996 -2.45789 5.07686 -24.2749 2.9681 1.47563 67.1287 -1.37952 1.33272 1.77273 0.0692517 5.14353e-016 -5 1.99544e-016 11.5004 -0.109688 3.02611 -0.0274165 11.9788 0.150594 -1.96812 3.04427 -0.804732 -6.0505e-016 -5 -9.9772e-017 5.96097 8.18421 0.376824 0.628665 -1.43705 -8.47848 1.04362e-015 7.95139e-016 3.97569e-016 9.8937 -6.48436 -21.5116 15.9711 -23.7604 6.89723 -0.0982326 -1.24571 -8.9037 1.04362e-015 7.95139e-016 3.97569e-016 -9.53314 -4.80599 11.459 -16.214 -24.0538 -7.04032 0.0803863 -1.12567 8.03961 
58.8727 86.8661 -123.277 -3.89003 -0.710264 -3.37856 5.11564 -27.135 2.70446 1.03113 61.4929 -1.0016 1.11371 -0.763481 3.6832 3.67743e-016 -5 7.98176e-016 11.914 1.22189 3.54091 -0.0369442 13.4173 0.124455 -3.18822 0.0746686 -1.46015 7.69981e-016 -5 -7.4829e-017 6.24325 7.59605 1.39556 0.165483 -0.887404 -8.32879 4.72114e-016 -7.95139e-016 -0 9.60902 -5.11977 -21.0007 15.6171 -23.3302 6.69041 -0.0916657 -1.20351 -8.59877 4.72114e-016 -7.95139e-016 -0 -10.2482 -6.11154 13.2142 -16.4616 -24.3493 -7.18694 0.0781244 -1.10978 7.92466 
58.8173 86.5471 -120.099 -3.88588 -0.513778 -3.78395 4.78338 -28.7747 1.54079 0.625873 53.0216 -0.65392 0.97074 -0.607103 7.7219 -1.98785e-016 -5 -0 11.8172 3.69665 3.14677 -0.0348448 12.4233 0.109251 -3.42432 -1.52136 -1.45142 5.83919e-017 -5 9.9772e-017 6.52998 7.5886 1.95215 -0.600584 -1.30062 -8.68019 6.21202e-016 -7.95139e-016 3.97569e-016 8.97591 -4.4355 -20.4874 15.0204 -22.5948 6.34611 -0.0686353 -1.04013 -7.42453 6.21202e-016 -7.95139e-016 3.97569e-016 -11.0241 -7.90423 15.1068 -17.1663 -25.1789 -7.60935 0.0499278 -0.883589 6.30199 
58.67 86.3002 -117.126 -3.92774 0.207595 -4.36853 4.69937 -29.9384 0.391057 0.360872 43.5758 -0.444857 0.874444 0.249394 10.1103 1.39131e-016 -5 1.59635e-015 11.7635 6.31701 3.4039 -0.0280974 9.90574 0.113108 -3.42114 -2.03357 -1.467 1.68967e-015 -5 -0 6.70072 7.04568 2.63777 -0.511112 -0.993043 -7.89614 -5.96354e-016 -7.95139e-016 -1.98785e-016 8.59106 -3.65374 -18.9782 14.5626 -22.0218 6.08586 -0.114867 -1.3478 -9.6393 -5.96354e-016 -7.95139e-016 -1.98785e-016 -11.5704 -9.48867 16.8403 -17.6172 -25.7 -7.88336 0.0339907 -0.725517 5.17202 
58.5196 86.1977 -113.958 -4.19733 0.824644 -5.16044 5.05856 -30.5305 -0.417654 0.201542 34.3103 -0.342639 1.03088 0.168436 10.8103 1.68958e-016 -5 7.98176e-016 11.734 11.3145 3.56155 -0.0156278 2.76314 0.163697 -3.26154 0.30908 -1.21854 6.95656e-017 -5 7.98176e-016 7.25303 6.48391 3.49124 -0.992506 -0.522626 -8.90276 2.48481e-017 7.95139e-016 -0 8.01242 -2.90908 -17.607 13.6312 -20.8316 5.56671 -0.107616 -1.3049 -9.32918 2.48481e-017 7.95139e-016 -0 -12.0508 -10.519 17.817 -18.3118 -26.4888 -8.31095 0.0344035 -0.730284 5.20596 
